<?xml version="1.0" standalone="no"?>
<!DOCTYPE svg PUBLIC "-//W3C//DTD SVG 20010904//EN"
 "http://www.w3.org/TR/2001/REC-SVG-20010904/DTD/svg10.dtd">
<svg version="1.0" xmlns="http://www.w3.org/2000/svg"
 width="352.000000pt" height="352.000000pt" viewBox="0 0 352.000000 352.000000"
 preserveAspectRatio="xMidYMid meet">
<metadata>
Created by potrace 1.11, written by Peter Selinger 2001-2013
</metadata>
<g transform="translate(0.000000,352.000000) scale(0.100000,-0.100000)"
fill="#000000" stroke="none">
<path d="M2705 3504 c-95 -23 -175 -56 -186 -76 -13 -25 -31 -23 -58 8 l-23
27 -23 -29 c-21 -27 -24 -28 -49 -14 -24 12 -30 12 -57 -4 -23 -13 -34 -15
-42 -7 -8 8 -1 22 28 51 21 22 35 43 31 47 -4 5 -13 1 -19 -8 -7 -9 -25 -23
-42 -32 -16 -8 -77 -61 -134 -116 -102 -99 -133 -121 -92 -63 11 16 18 31 16
34 -2 2 -20 2 -40 0 -27 -3 -39 -11 -50 -33 -24 -45 -54 -68 -101 -75 -27 -4
-44 -11 -44 -20 0 -10 6 -11 25 -4 l24 9 -17 -33 c-17 -33 -41 -47 -107 -61
-29 -6 -94 -79 -81 -92 9 -9 -14 -43 -29 -43 -8 0 -15 -5 -15 -11 0 -5 -8 -9
-17 -8 -35 3 -41 -2 -83 -66 -23 -35 -50 -67 -60 -70 -10 -3 -25 -17 -34 -30
-9 -13 -30 -31 -48 -40 -44 -21 -66 -41 -107 -95 -19 -25 -51 -63 -72 -85 -23
-24 -40 -54 -44 -75 -3 -19 -16 -55 -28 -80 -18 -37 -32 -50 -80 -73 -55 -27
-59 -28 -72 -11 -12 17 -14 17 -29 1 -18 -18 -36 -22 -36 -9 0 4 5 13 12 20 9
9 8 12 -5 12 -9 0 -40 -30 -70 -68 -39 -48 -70 -75 -112 -97 -121 -63 -163
-120 -230 -310 -20 -55 -47 -117 -60 -137 -32 -48 -31 -75 0 -112 25 -29 34
-80 15 -91 -5 -3 -14 -24 -20 -46 -8 -29 -21 -46 -45 -60 -44 -26 -66 -62 -70
-111 -3 -40 11 -76 92 -245 25 -53 66 -88 133 -114 19 -7 74 -39 121 -71 47
-32 91 -58 98 -58 37 0 143 -65 211 -129 41 -39 85 -74 98 -77 17 -5 22 -13
22 -38 0 -23 10 -44 34 -71 19 -21 46 -61 60 -90 27 -52 35 -59 220 -174 38
-24 60 -46 76 -78 l22 -44 54 4 c33 3 64 -1 80 -9 19 -10 31 -11 46 -3 25 13
71 5 123 -21 38 -19 70 -14 43 7 -24 19 -146 51 -156 41 -7 -7 -14 -2 -22 12
-19 36 -53 71 -85 87 -37 20 -95 79 -95 98 0 7 -8 16 -17 20 -19 6 -103 118
-103 136 0 8 4 8 14 0 7 -6 30 -12 50 -13 45 -2 56 -15 21 -24 -29 -7 -30 -12
-10 -38 10 -13 21 -17 39 -12 14 3 36 1 49 -5 21 -9 33 -7 74 13 51 26 77 25
101 -5 9 -10 10 -17 2 -22 -19 -12 -10 -33 20 -44 31 -10 41 -31 15 -31 -16 0
-18 -23 -6 -54 7 -18 10 -17 31 12 27 36 35 39 44 15 4 -10 -1 -23 -14 -35
-11 -10 -20 -21 -20 -23 0 -7 90 27 96 36 3 5 14 9 24 9 18 0 36 20 40 45 1 6
10 9 21 8 24 -3 24 1 -2 36 -15 21 -22 46 -24 95 -1 37 -4 69 -7 71 -2 3 -21
-22 -42 -55 -21 -32 -44 -64 -51 -70 -22 -18 -30 8 -9 31 20 22 20 21 -26 39
-139 54 -204 98 -216 147 -4 13 -4 46 -2 74 6 59 -4 63 -28 9 -10 -22 -23 -40
-30 -40 -13 0 -36 24 -30 31 2 2 7 21 10 42 l6 39 -26 -21 c-30 -24 -58 -15
-69 21 -4 13 -20 37 -35 53 -42 44 -52 77 -36 117 28 67 29 78 9 71 -10 -3
-27 -14 -38 -23 -44 -37 -64 -32 -80 20 -11 35 -29 44 -36 17 -6 -20 -7 -20
-19 10 -6 18 -15 32 -18 32 -19 -3 -22 3 -12 21 9 17 4 30 -31 82 -57 83 -67
94 -122 135 -46 34 -132 73 -172 77 -11 2 -58 -10 -105 -26 -102 -34 -91 -32
-101 -17 -12 19 17 78 53 110 18 16 65 52 105 81 49 36 72 60 72 74 1 13 16
33 37 49 36 28 74 66 118 121 14 17 32 31 40 31 17 0 86 44 86 56 0 4 -5 7
-11 7 -8 0 -7 5 1 15 7 9 19 14 27 11 8 -4 22 8 34 29 20 34 39 46 39 24 0
-29 21 10 45 82 15 45 45 112 66 150 22 38 39 73 39 79 0 5 5 10 10 10 6 0 10
7 10 15 0 9 7 27 16 40 9 14 24 50 33 80 10 31 22 55 27 53 5 -2 7 -10 4 -18
-2 -8 -4 -35 -4 -60 -1 -40 -7 -55 -41 -94 -5 -6 -17 -20 -25 -30 -14 -18 -14
-19 5 -9 22 12 38 28 90 86 19 22 36 33 40 27 3 -5 3 -14 0 -20 -9 -15 4 -12
21 4 15 16 47 11 65 -10 17 -21 39 -17 41 9 4 69 4 84 -4 100 -13 26 -40 21
-68 -13 -27 -32 -47 -41 -32 -13 6 10 6 29 1 47 -12 42 -12 41 16 54 23 11 25
10 25 -13 0 -22 2 -24 19 -13 23 14 42 53 35 71 -3 8 9 18 29 25 40 14 62 33
99 83 25 34 68 58 68 38 0 -17 19 -9 69 28 61 45 59 55 -4 19 -25 -15 -45 -23
-45 -17 0 12 163 117 206 133 19 7 34 15 34 18 0 3 6 15 14 25 13 18 14 18 31
1 17 -16 17 -18 -1 -32 -18 -14 -17 -15 15 -10 18 3 37 6 42 6 5 0 9 6 9 14 0
9 -7 12 -20 9 -11 -3 -20 -1 -20 5 0 10 83 39 140 48 14 3 32 7 41 10 8 2 29
-2 45 -10 16 -8 49 -16 74 -17 25 -1 53 -6 62 -11 22 -11 32 6 13 22 -14 11
-14 15 1 31 22 25 39 24 57 -1 13 -18 15 -19 21 -5 4 12 14 14 40 10 19 -4 42
-3 51 3 12 6 32 5 61 -4 65 -19 86 -32 124 -75 39 -45 64 -53 98 -31 21 14 22
13 22 -19 0 -42 7 -52 47 -73 43 -22 71 -52 94 -101 l18 -40 -4 40 c-2 22 -9
69 -16 105 -13 72 -12 66 -3 131 5 40 3 49 -20 74 -14 15 -23 31 -20 36 2 5
-6 29 -20 54 -19 37 -22 52 -15 76 5 16 13 43 19 60 5 18 7 36 3 42 -4 6 4 7
20 3 26 -6 26 -5 16 21 -19 52 -54 92 -100 118 -26 14 -50 32 -53 41 -4 9 -13
14 -21 10 -9 -3 -27 7 -45 24 -27 26 -33 28 -60 18 -29 -10 -66 -8 -100 5 -8
3 -42 -1 -75 -9z"/>
<path d="M2309 2901 l-23 -18 32 5 c22 3 32 0 32 -9 0 -10 3 -10 12 -1 8 8 8
15 -2 27 -16 19 -23 19 -51 -4z"/>
<path d="M2414 2895 c26 -19 42 -19 26 0 -7 8 -20 15 -29 15 -13 -1 -13 -3 3
-15z"/>
<path d="M2225 2880 c-13 -6 -15 -9 -5 -9 8 0 22 4 30 9 18 12 2 12 -25 0z"/>
<path d="M2464 2878 c-3 -4 2 -8 10 -8 21 0 31 -21 15 -30 -8 -5 -22 -1 -37
11 -30 23 -36 20 -23 -15 10 -24 15 -26 64 -26 31 0 61 6 75 16 28 19 29 53 2
56 -63 5 -102 3 -106 -4z"/>
<path d="M2622 2849 c-9 -18 -25 -39 -34 -48 -22 -19 -23 -37 -4 -48 8 -5 17
-32 21 -66 3 -32 11 -82 16 -110 6 -29 11 -58 12 -65 1 -27 27 -5 71 62 52 78
56 109 14 114 -28 3 -56 28 -44 39 3 4 12 1 18 -5 7 -7 18 -12 25 -12 8 0 27
-9 42 -21 23 -17 33 -19 49 -10 19 10 24 7 42 -28 24 -49 48 -63 97 -58 35 4
38 7 37 35 -1 17 -10 42 -20 55 -22 29 -64 53 -64 36 0 -6 -14 3 -31 20 -34
34 -49 39 -49 16 0 -8 5 -15 10 -15 19 0 70 -60 64 -75 -4 -8 -11 -15 -16 -15
-6 0 -8 6 -5 14 7 19 -10 32 -51 41 -33 7 -34 7 -28 53 8 56 1 69 -42 77 -17
3 -47 14 -64 25 -43 26 -46 26 -66 -11z"/>
<path d="M2055 2840 c-13 -6 -15 -9 -5 -9 8 0 22 4 30 9 18 12 2 12 -25 0z"/>
<path d="M2193 2842 c-35 -3 -43 -16 -18 -26 13 -5 13 -9 3 -26 -7 -11 -22
-23 -32 -26 -18 -6 -18 -7 -3 -16 28 -15 62 -53 108 -118 41 -59 59 -70 65
-39 2 7 9 34 17 59 8 26 15 71 15 100 0 30 0 58 1 63 1 4 12 0 25 -8 23 -15
25 -15 36 4 13 25 16 23 -45 27 -27 2 -70 4 -95 6 -25 2 -60 2 -77 0z"/>
<path d="M2035 2790 c-17 -11 -49 -29 -72 -41 -22 -11 -44 -26 -46 -34 -7 -17
20 -28 30 -12 10 15 78 47 101 47 10 0 26 6 36 13 16 12 16 14 -1 29 -18 16
-21 16 -48 -2z"/>
<path d="M2890 2800 c0 -5 10 -10 23 -10 18 0 19 2 7 10 -19 13 -30 13 -30 0z"/>
<path d="M2422 2762 c-39 -6 -42 -31 -13 -112 15 -41 34 -76 42 -77 15 -3 86
103 99 148 9 31 -5 42 -45 35 -11 -2 -29 0 -40 3 -11 4 -30 5 -43 3z"/>
<path d="M2066 2715 c-11 -8 -34 -18 -52 -21 -57 -11 -62 -28 -18 -76 21 -24
45 -51 53 -60 9 -10 21 -18 27 -18 10 0 27 48 40 115 2 11 6 32 10 48 5 23 3
27 -18 27 -13 0 -32 -7 -42 -15z"/>
<path d="M1833 2672 c-15 -2 -23 -10 -23 -24 0 -20 1 -20 26 -3 14 9 35 15 45
12 10 -3 19 -2 19 3 0 10 -38 16 -67 12z"/>
<path d="M1804 2587 c-50 -50 -54 -68 -21 -86 12 -7 33 -28 47 -46 14 -19 28
-35 31 -35 4 0 10 26 14 58 4 31 8 66 10 77 12 62 10 70 -13 73 -17 3 -36 -9
-68 -41z"/>
<path d="M2781 2616 c-11 -13 -9 -75 6 -156 4 -19 5 -42 4 -50 -1 -9 10 -2 26
15 41 43 83 100 83 113 0 12 -39 27 -82 31 -5 1 -8 12 -8 25 0 30 -14 41 -29
22z"/>
<path d="M2939 2477 c-2 -41 3 -82 10 -90 7 -7 41 66 41 88 0 6 -12 13 -25 17
-21 5 -25 3 -26 -15z"/>
<path d="M2998 2355 c-3 -14 -2 -25 2 -25 4 0 12 11 18 25 9 20 9 25 -2 25 -8
0 -16 -11 -18 -25z"/>
<path d="M1493 2288 c-18 -9 -20 -14 -11 -34 12 -26 38 -40 39 -21 0 7 3 24 5
40 5 29 1 31 -33 15z"/>
<path d="M1369 2164 c-11 -14 -10 -16 9 -12 13 1 23 7 23 13 1 17 -17 16 -32
-1z"/>
<path d="M2176 396 c-15 -31 -33 -56 -41 -56 -18 0 -28 -30 -14 -46 6 -8 22
-14 35 -14 12 0 26 -5 29 -10 12 -20 22 0 24 47 1 26 4 62 5 80 6 57 -10 57
-38 -1z"/>
<path d="M1886 231 c-15 -10 -28 -22 -28 -26 0 -12 25 -25 50 -25 16 0 22 6
22 23 0 40 -13 48 -44 28z"/>
<path d="M2250 217 c-19 -17 -46 -39 -59 -48 -17 -11 -24 -24 -24 -47 0 -52
16 -58 47 -17 23 29 81 146 73 145 -1 0 -18 -15 -37 -33z"/>
<path d="M2580 215 c-13 -14 -25 -23 -28 -21 -7 7 -82 -35 -82 -46 0 -18 80
-1 105 22 14 13 23 25 20 28 -2 3 0 13 6 23 13 26 7 24 -21 -6z"/>
<path d="M2388 151 c-22 -52 -30 -61 -52 -61 -14 0 -26 -3 -27 -7 -1 -16 -7
-38 -14 -55 -9 -23 6 -23 47 -2 59 31 84 80 76 153 -3 31 -4 31 -30 -28z"/>
</g>
</svg>
