<?xml version="1.0" encoding="utf-8"?>
<!-- Generator: Adobe Illustrator 15.0.0, SVG Export Plug-In  -->
<!DOCTYPE svg PUBLIC "-//W3C//DTD SVG 1.1//EN" "http://www.w3.org/Graphics/SVG/1.1/DTD/svg11.dtd" [
	<!ENTITY ns_flows "http://ns.adobe.com/Flows/1.0/">
]>
<svg version="1.1"
	 xmlns="http://www.w3.org/2000/svg" xmlns:xlink="http://www.w3.org/1999/xlink" xmlns:a="http://ns.adobe.com/AdobeSVGViewerExtensions/3.0/"
	 x="0px" y="0px" width="110px" height="69px" viewBox="0 0 110 69" overflow="visible" enable-background="new 0 0 110 69"
	 xml:space="preserve">
<defs>
</defs>
<g>
	<defs>
		<rect id="SVGID_1_" width="110" height="69.224"/>
	</defs>
	<clipPath id="SVGID_2_">
		<use xlink:href="#SVGID_1_"  overflow="visible"/>
	</clipPath>
	<path clip-path="url(#SVGID_2_)" fill-rule="evenodd" clip-rule="evenodd" d="M82.387,0c0.671,0.047,1.342,0.093,2.012,0.141
		c3.605,0.256,7.668,1.139,11.033,2.443c-0.354,0.151-0.668,0.29-0.985,0.419c-3.886,1.58-7.384,3.775-10.476,6.607
		c-0.649,0.595-1.257,1.234-1.868,1.869c-0.159,0.165-0.302,0.235-0.533,0.198c-2.606-0.426-5.214-0.844-7.822-1.263
		c-0.145-0.023-0.292-0.04-0.476,0.012c1.999,1.493,3.997,2.987,5.959,4.454c-6.618,10.361-7.836,21.065-2.292,32.32
		c-16.087-5.314-32.569-7.353-49.536-5.335c0.364-0.908,0.703-1.792,1.069-2.663c2.5-5.948,5.706-11.485,9.704-16.55
		c5.333-6.755,11.698-12.305,19.283-16.415c4.172-2.26,8.564-3.958,13.191-5.025c2.903-0.669,5.843-1.088,8.826-1.169
		c0.077-0.002,0.154-0.028,0.23-0.043H82.387z M35.498,37.347c0.029,0.014,0.058,0.027,0.086,0.04
		c0.01-0.006,0.024-0.01,0.028-0.019c0.207-0.42,0.407-0.843,0.618-1.262c3.008-5.969,6.973-11.242,11.667-15.978
		c2.039-2.057,4.204-3.977,6.487-5.761C58.924,10.82,63.8,7.85,69.14,5.662c3.121-1.279,6.335-2.235,9.676-2.74
		c0.914-0.138,1.834-0.228,2.845-0.352c-2.728-0.128-5.325,0.148-7.896,0.701c-4.521,0.97-8.748,2.703-12.769,4.957
		c-5.176,2.902-9.799,6.521-13.901,10.804c-4.243,4.431-7.754,9.367-10.252,14.989C36.357,35.114,35.944,36.238,35.498,37.347"/>
	<path clip-path="url(#SVGID_2_)" fill-rule="evenodd" clip-rule="evenodd" d="M102.172,54.582
		c-2.613,3.088-5.815,5.256-9.789,6.197c-2.636,0.624-5.299,0.659-7.979,0.375c-4.306-0.455-8.454-1.628-12.619-2.734
		c-4.46-1.185-8.917-2.387-13.399-3.487c-3.91-0.96-7.884-1.602-11.885-2.065c-4.838-0.561-9.691-0.817-14.558-0.656
		c-9.788,0.322-18.96,2.797-27.308,8.023C3.039,61.233,1.524,62.363,0,63.414c0.043-0.096,0.108-0.264,0.191-0.422
		c1.129-2.143,2.593-4.042,4.269-5.777c4.556-4.712,10.059-7.861,16.28-9.815c3.674-1.155,7.442-1.794,11.284-2.011
		c3.398-0.192,6.791-0.067,10.181,0.2c8.166,0.645,16.087,2.441,23.794,5.17c4.351,1.54,8.65,3.229,12.979,4.833
		c2.658,0.986,5.351,1.856,8.146,2.394c4.837,0.93,9.339,0.085,13.536-2.467C101.165,55.209,101.668,54.894,102.172,54.582"/>
	<path clip-path="url(#SVGID_2_)" fill-rule="evenodd" clip-rule="evenodd" d="M110,56.055c-0.708,0.874-1.389,1.771-2.131,2.615
		c-1.749,1.985-3.755,3.684-5.965,5.132c-2.764,1.809-5.745,3.148-8.925,4.045c-2.796,0.79-5.647,1.224-8.549,1.341
		c-5.606,0.227-11.05-0.649-16.367-2.389c-4.534-1.484-8.801-3.519-12.734-6.231c-0.506-0.35-0.993-0.729-1.454-1.169
		c0.119,0.04,0.238,0.077,0.356,0.118c5.063,1.768,10.198,3.279,15.462,4.324c3.256,0.646,6.535,1.105,9.852,1.292
		c3.309,0.186,6.605,0.092,9.887-0.375c3.535-0.504,6.952-1.437,10.247-2.821c3.38-1.419,6.504-3.28,9.473-5.417
		c0.254-0.184,0.517-0.357,0.775-0.536C109.952,56.008,109.976,56.032,110,56.055"/>
</g>
</svg>
