<?xml version="1.0" encoding="utf-8"?>
<!-- Generator: Adobe Illustrator 15.0.0, SVG Export Plug-In  -->
<!DOCTYPE svg PUBLIC "-//W3C//DTD SVG 1.1//EN" "http://www.w3.org/Graphics/SVG/1.1/DTD/svg11.dtd" [
	<!ENTITY ns_flows "http://ns.adobe.com/Flows/1.0/">
]>
<svg version="1.1"
	 xmlns="http://www.w3.org/2000/svg" xmlns:xlink="http://www.w3.org/1999/xlink" xmlns:a="http://ns.adobe.com/AdobeSVGViewerExtensions/3.0/"
	 x="0px" y="0px" width="33px" height="35px" viewBox="0 0 33 35" overflow="visible" enable-background="new 0 0 33 35"
	 xml:space="preserve">
<defs>
</defs>
<g>
	<defs>
		<rect id="SVGID_1_" width="33.3" height="34.671"/>
	</defs>
	<clipPath id="SVGID_2_">
		<use xlink:href="#SVGID_1_"  overflow="visible"/>
	</clipPath>
	
		<path clip-path="url(#SVGID_2_)" fill="none" stroke="#FFFFFF" stroke-width="1.3" stroke-linejoin="round" stroke-miterlimit="10" d="
		M19.601,1.649v31.372c0,0.867-1.031,1.321-1.671,0.735l-9.725-8.914c-0.368-0.338-0.851-0.525-1.351-0.525H3.65
		c-1.657,0-3-1.344-3-3v-7.964c0-1.657,1.343-3,3-3h3.204c0.5,0,0.983-0.187,1.351-0.526l9.725-8.913
		C18.569,0.328,19.601,0.782,19.601,1.649z"/>
	
		<path clip-path="url(#SVGID_2_)" fill="none" stroke="#FFFFFF" stroke-width="1.3" stroke-linecap="round" stroke-miterlimit="10" d="
		M23.591,9.355L23.591,9.355c3.998,4.569,3.998,11.392,0,15.959"/>
	
		<path clip-path="url(#SVGID_2_)" fill="none" stroke="#FFFFFF" stroke-width="1.3" stroke-linecap="round" stroke-miterlimit="10" d="
		M27.58,4.369L27.58,4.369c6.761,7.322,6.761,18.609,0,25.934"/>
</g>
</svg>
